<mxfile host="app.diagrams.net" modified="2024-07-09T00:30:52.214Z" agent="Mozilla/5.0 (Windows NT 10.0; Win64; x64) AppleWebKit/537.36 (KHTML, like Gecko) Chrome/126.0.0.0 Safari/537.36" version="24.5.4" etag="ZyZeurmKdvzYoH_t-yI4" type="github">
  <diagram name="第 1 页" id="CjI5vMv7RPz6i12sdFc7">
    <mxGraphModel>
      <root>
        <mxCell id="0" />
        <mxCell id="1" parent="0" />
      </root>
    </mxGraphModel>
  </diagram>
</mxfile>
